<svg id="Iceberg_Alt2" data-name="Iceberg Alt2" xmlns="http://www.w3.org/2000/svg" viewBox="0 0 1222.27 494"><defs><style>.cls-1{fill:#051c36;}.cls-13,.cls-2{fill:#0a7bfc;}.cls-3{fill:#f5f5f5;}.cls-4{fill:#9fd1f0;}.cls-10,.cls-11,.cls-12,.cls-5,.cls-6,.cls-8,.cls-9{fill:#fdfdfd;}.cls-6{opacity:0.41;}.cls-7{fill:#81bfe4;}.cls-8{opacity:0.15;}.cls-9{opacity:0.61;}.cls-10{opacity:0.09;}.cls-11{opacity:0.11;}.cls-12{opacity:0.39;}.cls-13{opacity:0.23;}</style></defs><title>ICEBERG_Traços</title><g id="Camada_7_cópia_cópia" data-name="Camada 7 cópia cópia"><path class="cls-1" d="M614.29,356.57c0,10.34,8.91,18.5,19.77,18.5a27.25,27.25,0,0,0,13.93-3.5l9.71,17.92s-9.39,6.7-27.86,6.7c-24,0-46-17.48-46-39.33,0-22,21.87-39.77,46-39.77,18.47,0,27.86,7,27.86,7L648,341.71a27.25,27.25,0,0,0-13.93-3.5C623.2,338.21,614.29,346.37,614.29,356.57Z" transform="translate(-19 -49)"/><path class="cls-1" d="M713.42,317.09C741,317.09,763,333.4,763,356.71c0,23-20.89,39.48-49.56,39.48-30,0-50-16.46-50-39.48C663.37,333.4,685.4,317.09,713.42,317.09Zm-.16,57.1c11.17,0,19.27-7.28,19.27-17.48s-8.58-17.62-19.27-17.62c-10.85,0-19.44,7.28-19.44,17.62S701.6,374.19,713.26,374.19Z" transform="translate(-19 -49)"/><path class="cls-1" d="M776.1,319.27h28.67v7.87h.32c6.48-5.83,14.74-10.05,23.81-10.05,15.23,0,36.44,6.85,36.44,27.68V394H836.68V351.76a14.49,14.49,0,0,0-14.91-14.57c-8.58,0-17,7.14-17,14.57V394H776.1Z" transform="translate(-19 -49)"/><path class="cls-1" d="M887.05,291.45h28.66v27.82h17.5v19.67h-17.5v23.75c0,7,1.95,10.34,6.48,10.34a14.43,14.43,0,0,0,7.13-2.33l7.13,20.83a51.61,51.61,0,0,1-21.06,4.66c-22.84,0-28.34-15.29-28.34-28.55v-28.7h-12V319.27h12Z" transform="translate(-19 -49)"/><path class="cls-1" d="M970,360.21c0,11.51,10.69,15.44,18,15.44,9.23,0,13.28-1.6,20.25-8.3l20.73,9.32c-9.39,14.13-24.62,19.52-43.08,19.52-25.11,0-45.68-17.77-45.68-39.48s20.57-39.62,45.68-39.62,44.54,13.4,44.54,39.62a24.63,24.63,0,0,1-.16,3.5Zm32.4-14.28c-1.3-7.86-7.29-12.09-15.71-12.09-9.88,0-15.39,5.25-15.88,12.09Z" transform="translate(-19 -49)"/><path class="cls-1" d="M1043.5,319.27h28.67v7.87h.33c6.48-5.83,14.74-10.05,23.81-10.05,15.22,0,36.44,6.85,36.44,27.68V394h-28.67V351.76a14.49,14.49,0,0,0-14.9-14.57c-8.58,0-17,7.14-17,14.57V394H1043.5Z" transform="translate(-19 -49)"/><path class="cls-1" d="M1154.45,291.45h28.67v27.82h17.49v19.67h-17.49v23.75c0,7,2,10.34,6.48,10.34a14.43,14.43,0,0,0,7.13-2.33l7.12,20.83a51.53,51.53,0,0,1-21,4.66c-22.84,0-28.35-15.29-28.35-28.55v-28.7h-12V319.27h12Z" transform="translate(-19 -49)"/><path class="cls-2" d="M612.21,254.9H583.57V141.84h28.64Z" transform="translate(-19 -49)"/><path class="cls-2" d="M717.19,224.62l12.18,21.92S715.36,257,688.08,257c-35.5,0-68.1-26-68.1-58.38s32.45-58.79,68.1-58.79c27.28,0,41.29,10.41,41.29,10.41l-12.18,21.93a46.8,46.8,0,0,0-24.69-7c-28.79,0-41.44,18.09-41.44,33.16s12.65,33.3,41.44,33.3A46.84,46.84,0,0,0,717.19,224.62Z" transform="translate(-19 -49)"/><path class="cls-2" d="M812.25,164.46H769v22.47h41.44v22.61H769v22.75h43.27V254.9H740.34V141.84h71.91Z" transform="translate(-19 -49)"/><path class="cls-2" d="M867.71,141.84c21.63,0,38.69,7.27,38.69,28.78,0,10.42-5,19.32-15.69,24.26,15.69,2.46,26.82,10.28,26.82,28.5,0,18.64-15.09,31.52-41.14,31.52H828.7V141.84Zm-8.08,44.27c12.34,0,19-3.43,19-12.88,0-8.09-6.55-11.52-19-11.52h-2.29v24.4Zm6.7,48.92c13.56,0,21-3.7,21-12.61,0-10.41-7.47-14.11-21-14.11h-9V235Z" transform="translate(-19 -49)"/><path class="cls-2" d="M1002.08,164.46H958.81v22.47h41.44v22.61H958.81v22.75h43.27V254.9H930.17V141.84h71.91Z" transform="translate(-19 -49)"/><path class="cls-2" d="M1063.47,141.84c23.32,0,41,11.38,41,33.58,0,17-10.36,28.37-25.75,32.75L1122,254.9h-36.41l-38.4-44.67V254.9h-28.64V141.84Zm-13,50.16c10.82,0,23.77-.68,23.77-14.8s-13-14.8-23.77-14.8h-3.35V192Z" transform="translate(-19 -49)"/><path class="cls-2" d="M1241.27,216.12c-6.85,28.64-33.36,40.84-58,40.84-33.82,0-61.25-26.18-61.25-58.52s25.91-58.65,61.25-58.65c22.1,0,37.48,7.4,48.45,19.32l-18.74,18.5c-7.31-10.55-16.91-14.53-28-14.53-17.67,0-32,15.76-32,35.36,0,19.19,14.33,34.81,32,34.81,13.71,0,27.27-7.95,27.27-21.79h-29V191.59h58Z" transform="translate(-19 -49)"/><g id="Camada_4_cópia_cópia" data-name="Camada 4 cópia cópia"><path class="cls-3" d="M26.4,235.76C53.29,128.46,150.36,49,266,49c115.37,0,212.27,79.1,239.42,186" transform="translate(-19 -49)"/><path class="cls-3" d="M505.42,235A247.54,247.54,0,0,1,513,296c0,136.41-110.59,247-247,247S19,432.41,19,296a247.62,247.62,0,0,1,7.4-60.24" transform="translate(-19 -49)"/></g><g id="Camada_2_cópia_cópia" data-name="Camada 2 cópia cópia"><path class="cls-4" d="M121.87,235.15,179.52,158l10.13,6.23,77.13-74L313.52,137l10.13-11.69,87.26,109.85-17.14,66.22L382.08,288.9l-28.82,97.39-10.13-10.13C315.4,430,314.59,452.3,307.29,479l-10.13-7.79-30.38,64.66L238,469.65,226.27,479c-13.12-61.45-25.34-78.5-35.45-100.89l-10.91,7.79c-10.44-52.28-21.77-77.19-30.38-92.71L139.4,301l-17.14-60.77Z" transform="translate(-19 -49)"/><polygon class="cls-5" points="247.39 41.57 218.95 126.16 244.66 114.47 212.72 186.15 103.65 185.37 160.52 109.02 170.65 115.25 247.39 41.57"/><polygon class="cls-6" points="243.88 115.25 212.72 186.15 299.98 186.15 243.88 115.25"/><polygon class="cls-7" points="226.74 102.79 218.95 126.16 232.98 119.93 226.74 102.79"/><path class="cls-8" d="M255.09,126.08c-5.58,13.76-8.94,21-9.35,25.71-.52,6.07,3.19,8.27,6.24,17.92l10.9-5.46c75,91.77,38.3,67.68,104.4,70.9L258.21,114.39Z" transform="translate(-19 -49)"/><path class="cls-9" d="M266.78,90.24,410.91,235.15c-67.4-2.2-19.2,22.18-152.7-120.76Z" transform="translate(-19 -49)"/><g id="Camada_3_cópia_cópia" data-name="Camada 3 cópia cópia"><path class="cls-7" d="M231.72,235.15l-10.13,17.92h24.15c-27.2,55.25-20,16.09,16.75,153.86l18.64-171.78Z" transform="translate(-19 -49)"/><path class="cls-7" d="M304.09,235.15l-37.7,300.33,31.5-63.16,9,6.29c13.8-64.44,24.19-76.25,35.68-100.54l10.29,8.61,28.82-97.39,12,11.93,16.79-66.46Z" transform="translate(-19 -49)"/><path class="cls-10" d="M231.72,253.07,179.6,383.47c-.62-6.12-15.78-57.58-12.63-55.22C225.7,248,218.58,252,231.72,253.07Z" transform="translate(-19 -49)"/><path class="cls-11" d="M266.78,535.09l-31.2-63.55-8.18,6.55c-13.87-60.63-26.81-78.64-37-100.37l-10.91,8.57,48.31-97.39,34.66,118,18.7-171.39h22.59Z" transform="translate(-19 -49)"/></g><polyline class="cls-10" points="130.14 243.8 144.45 273.35 170.65 207.96 130.14 243.8"/><polygon class="cls-12" points="212.72 204.07 226.74 204.07 160.52 336.51 212.72 204.07"/><polygon class="cls-12" points="254 262 236 262 244 357 254 262"/><path class="cls-12" d="M214,235.54l-74.24,65.83-18.7-66.22C123.08,232.69,211.85,236.42,214,235.54Z" transform="translate(-19 -49)"/><path class="cls-12" d="M231.72,235.15c-23.43-.09-15.3-1.65-28.86,9.88-20.06,17.9-11,9.15-22.75,35.52-9.28,27.17-20.84,39.08-13.83,48.87C181.57,308.93,220,256.81,231.72,235.15Z" transform="translate(-19 -49)"/></g><g id="Camada_5_cópia_cópia" data-name="Camada 5 cópia cópia"><path class="cls-13" d="M505.18,234.1A247.63,247.63,0,0,1,513,296c0,136.41-110.59,247-247,247S19,432.41,19,296a247.63,247.63,0,0,1,7.82-61.9" transform="translate(-19 -49)"/></g></g></svg>